<svg width="46" height="46" viewBox="0 0 46 46" fill="none" xmlns="http://www.w3.org/2000/svg">
<rect x="0.5" y="0.5" width="45" height="45" rx="21.7333" stroke="#0088FF"/>
<path d="M33.5144 15.3334H12.4858C12.021 15.3334 11.5753 15.5111 11.2467 15.8274C10.918 16.1437 10.7334 16.5727 10.7334 17.02V30.5134C10.7334 30.9607 10.918 31.3897 11.2467 31.706C11.5753 32.0223 12.021 32.2 12.4858 32.2H33.5144C33.9791 32.2 34.4248 32.0223 34.7535 31.706C35.0821 31.3897 35.2667 30.9607 35.2667 30.5134V17.02C35.2667 16.5727 35.0821 16.1437 34.7535 15.8274C34.4248 15.5111 33.9791 15.3334 33.5144 15.3334ZM31.5867 17.02L23.0001 22.7378L14.4134 17.02H31.5867ZM12.4858 30.5134V17.7875L22.5006 24.4582C22.6473 24.5562 22.8216 24.6087 23.0001 24.6087C23.1786 24.6087 23.3528 24.5562 23.4995 24.4582L33.5144 17.7875V30.5134H12.4858Z" fill="#0088FF"/>
</svg>
