<svg width="48" height="48" viewBox="0 0 48 48" fill="none" xmlns="http://www.w3.org/2000/svg">
<rect x="0.5" y="0.5" width="47" height="47" rx="22.7333" stroke="#9C27B0"/>
<path d="M34.0659 13.1134C34.7305 13.1134 35.2943 13.3348 35.7456 13.7804C36.197 14.2261 36.4213 14.7837 36.4204 15.4415V29.9357C36.4203 30.5933 36.1958 31.1502 35.7456 31.5958C35.3515 31.9858 34.8707 32.2042 34.311 32.2521L34.0659 32.2618H15.9907L13.7134 34.5118C13.524 34.6989 13.3115 34.8205 13.0776 34.8663C12.8439 34.9121 12.6007 34.8793 12.353 34.7784C12.1053 34.6775 11.909 34.5311 11.7759 34.3341C11.6427 34.1369 11.5806 33.9005 11.5806 33.6339V15.4415C11.5806 14.7828 11.8058 14.2253 12.2573 13.7804C12.7085 13.3359 13.2718 13.1144 13.936 13.1134H34.0659ZM13.9351 14.7657C13.7733 14.7658 13.6184 14.8312 13.4663 14.9806C13.3146 15.1297 13.2498 15.2813 13.2505 15.4396V32.6105L15.2378 30.6534L15.2827 30.6095H34.0659C34.2276 30.6095 34.3827 30.5448 34.5347 30.3956C34.6864 30.2465 34.7512 30.0939 34.7505 29.9357V15.4406C34.7505 15.2827 34.6861 15.1299 34.5347 14.9796C34.3838 14.8299 34.2291 14.7651 34.0669 14.7657H13.9351ZM18.5483 21.4982C18.8721 21.4982 19.1558 21.6185 19.3921 21.8517C19.6284 22.085 19.7514 22.3661 19.7515 22.6876C19.7515 23.0093 19.6284 23.2902 19.3921 23.5236C19.1558 23.7569 18.8722 23.8771 18.5483 23.8771C18.2246 23.877 17.9408 23.7568 17.7046 23.5236C17.4684 23.2902 17.3462 23.0091 17.3462 22.6876C17.3463 22.3661 17.4683 22.085 17.7046 21.8517C17.9408 21.6184 18.2246 21.4983 18.5483 21.4982ZM24.0005 21.4982C24.3243 21.4982 24.608 21.6184 24.8442 21.8517C25.0805 22.085 25.2036 22.3661 25.2036 22.6876C25.2036 23.0092 25.0805 23.2902 24.8442 23.5236C24.6079 23.7569 24.3244 23.8771 24.0005 23.8771C23.6766 23.8771 23.393 23.7569 23.1567 23.5236C22.9205 23.2902 22.7974 23.0092 22.7974 22.6876C22.7974 22.3661 22.9205 22.085 23.1567 21.8517C23.393 21.6184 23.6767 21.4982 24.0005 21.4982ZM29.4526 21.4982C29.7764 21.4982 30.0601 21.6184 30.2964 21.8517C30.5327 22.085 30.6547 22.3661 30.6548 22.6876C30.6548 23.0092 30.5326 23.2902 30.2964 23.5236C30.0601 23.7569 29.7764 23.877 29.4526 23.8771C29.1288 23.8771 28.8452 23.7569 28.6089 23.5236C28.3725 23.2902 28.2495 23.0093 28.2495 22.6876C28.2496 22.3661 28.3726 22.085 28.6089 21.8517C28.8452 21.6185 29.1289 21.4982 29.4526 21.4982Z" fill="#9C27B0" stroke="#9C27B0" stroke-width="0.306667"/>
</svg>
