<svg width="48" height="48" viewBox="0 0 48 48" fill="none" xmlns="http://www.w3.org/2000/svg">
<rect x="0.5" y="0.5" width="47" height="47" rx="22.7333" stroke="#25D366"/>
<path d="M33.0084 14.9412C31.8367 13.7581 30.4413 12.82 28.9035 12.1816C27.3657 11.5433 25.7162 11.2173 24.0511 11.2228C17.0745 11.2228 11.3884 16.909 11.3884 23.8856C11.3884 26.1217 11.9761 28.294 13.075 30.2106L11.2861 36.7784L17.9945 35.0151C19.8472 36.0245 21.93 36.5612 24.0511 36.5612C31.0278 36.5612 36.7139 30.8751 36.7139 23.8984C36.7139 20.5123 35.3978 17.3306 33.0084 14.9412ZM24.0511 34.4145C22.16 34.4145 20.3072 33.9034 18.6845 32.9451L18.3011 32.7151L14.3145 33.7628L15.375 29.8784L15.1195 29.4823C14.0686 27.8046 13.5106 25.8653 13.5095 23.8856C13.5095 18.0845 18.2372 13.3567 24.0384 13.3567C26.8495 13.3567 29.4945 14.4556 31.475 16.449C32.4559 17.425 33.2331 18.5861 33.7618 19.8649C34.2904 21.1437 34.5598 22.5147 34.5545 23.8984C34.58 29.6995 29.8522 34.4145 24.0511 34.4145ZM29.8267 26.5434C29.5072 26.3901 27.9484 25.6234 27.6672 25.5084C27.3734 25.4062 27.1689 25.3551 26.9517 25.6617C26.7345 25.9812 26.1339 26.6967 25.955 26.9012C25.7761 27.1184 25.5845 27.144 25.265 26.9778C24.9456 26.8245 23.9234 26.4795 22.7222 25.4062C21.7767 24.5628 21.1506 23.5278 20.9589 23.2084C20.78 22.889 20.9334 22.7228 21.0995 22.5567C21.24 22.4162 21.4189 22.1862 21.5722 22.0073C21.7256 21.8284 21.7895 21.6878 21.8917 21.4834C21.9939 21.2662 21.9428 21.0873 21.8661 20.934C21.7895 20.7806 21.1506 19.2217 20.895 18.5828C20.6395 17.9695 20.3711 18.0462 20.1795 18.0334H19.5661C19.3489 18.0334 19.0167 18.1101 18.7228 18.4295C18.4417 18.749 17.6239 19.5156 17.6239 21.0745C17.6239 22.6334 18.7611 24.1412 18.9145 24.3456C19.0678 24.5628 21.1506 27.7573 24.3195 29.1245C25.0734 29.4567 25.6611 29.6484 26.1211 29.789C26.875 30.0317 27.565 29.9934 28.1145 29.9167C28.7278 29.8273 29.9928 29.1501 30.2484 28.409C30.5167 27.6678 30.5167 27.0417 30.4272 26.9012C30.3378 26.7606 30.1461 26.6967 29.8267 26.5434Z" fill="#25D366"/>
</svg>
